<svg xmlns="http://www.w3.org/2000/svg" width="228.925" height="17.288" viewBox="0 0 228.925 17.288">
  <path id="runa_dnia_kopia" data-name="runa dnia kopia" d="M1341.283,708.949l-6.623,7.08V698.913l6.622,7.087,6.617-7.086v17.129Zm-4.61,1.988,3.238-3.469L1336.673,704Zm5.974-3.476,3.247,3.475V704Zm47.811,3.966,1.168-1.707,3.368,2.306V698.755l6.605,4.731-1.206,1.68-3.349-2.4v13.168Zm29.058,3.859V699.172l4.963,1.985,3.7-1.856.9,1.8-4.521,2.255-3.041-1.226v2.328l3.006,1.243,3.758-1.549.76,1.854-4.518,1.863-3.005-1.243v8.658Zm-136.062,0V699.172l4.964,1.985,3.7-1.856.9,1.8-4.52,2.255-3.041-1.226v2.328l3.006,1.243,3.757-1.549.76,1.854-4.519,1.863-3-1.243v8.658Zm-49.572,0V704.95l-4.556-2.27v12.606h-2.069V699.321l8.693,4.351v11.615Zm-33.726,0V699.209l8.923,5.093-6.085,3.484,6.291,5.543-1.373,1.559-5.687-5.009v5.408Zm2.069-9.444,2.682-1.541-2.682-1.53Zm163.562-.678,5.594-5.585,5.594,5.585-5.594,5.594Zm2.927,0,2.668,2.667,2.667-2.667-2.667-2.677Zm-114.327,0,5.594-5.585,5.594,5.585-5.594,5.594Zm2.927,0,2.668,2.667,2.667-2.667-2.667-2.677Z" transform="translate(-1200.156 -698.755)" fill="#fff"/>
</svg>
