<svg xmlns="http://www.w3.org/2000/svg" width="172" height="18" viewBox="0 0 172 18">
  <defs>
    <style>
      .cls-1 {
        fill: #fff;
        fill-rule: evenodd;
      }
    </style>
  </defs>
  <path id="futark" class="cls-1" d="M8.274,5.783L2.226,8.743v-2.7L9.171,2.687,8.284,0.829,2.226,3.751V1.182H0.157V17.287H2.226V11.025l6.944-3.4Zm26.787-.112L26.368,1.321V17.287h2.069V4.68L32.992,6.95V17.287h2.069V5.672ZM54.4,4.809V1.126H52.329V17.287H54.4V12.769l6.828-3.98Zm0,5.566V7.214l2.7,1.575ZM80.517,6.462V4.079l6.354,2.263,0.678-1.9L78.513,1.228V17.287h2V8.623l6.3,2.553,0.752-1.857ZM107.6,9.787L113.685,6.3l-8.924-5.092V17.287h2.069V11.878l5.687,5.01,1.374-1.559Zm-0.77-1.944V4.772l2.682,1.53Zm23.852,1.269L138.559,2.8l-1.25-1.555-9.723,7.775,9.64,8.683,1.347-1.5Z"/>
</svg>
