<svg xmlns="http://www.w3.org/2000/svg" width="30.332" height="47.092" viewBox="0 0 30.332 47.092">
  <g id="Grupa_13" data-name="Grupa 13" transform="translate(-1103.767 -471)">
    <circle id="Elipsa_3" data-name="Elipsa 3" cx="8.5" cy="8.5" r="8.5" transform="translate(1107 471)" fill="#3bffe1"/>
    <path id="Prostokąt_zaokrąglony_15_kopia_2" data-name="Prostokąt zaokrąglony 15 kopia 2" d="M1117.308,517.592a4.077,4.077,0,0,1-4.072-4.081l-.107-1.4-8.369-14.062a2.452,2.452,0,0,1,.846-3.358l.7-.418a2.44,2.44,0,0,1,3.35.848l2.785,4.68V481.66a3.25,3.25,0,0,1,6.5,0v7.5a2.991,2.991,0,0,1,2.18-.939h.5a3,3,0,0,1,3,3v.3a2.841,2.841,0,0,1,2.039-.86h.021a2.85,2.85,0,0,1,2.849,2.849v.205a2.44,2.44,0,0,1,4.07,1.815v6.56a2.461,2.461,0,0,1-.029.379,4.129,4.129,0,0,1,.022.428l-2.443,10.613c0,2.254-1.008,4.081-3.257,4.081Z" stroke="#3bffe1" stroke-linecap="round" stroke-linejoin="round" stroke-width="1"/>
  </g>
</svg>
