<svg xmlns="http://www.w3.org/2000/svg" width="17.399" height="511.416" viewBox="0 0 17.399 511.416">
  <path id="spraw_aby_to_byl_dobry_dzien_kopia" data-name="spraw aby to byl dobry dzien kopia" d="M1858.021,829.724l5.594-5.594,5.585,5.594-5.585,5.594Zm2.926,0,2.667,2.668,2.677-2.668-2.677-2.667Zm-7.454-14.956v-2.013h11.872l-2.558-3.007,2.548-3h-11.862v-2h16.189l-4.249,5.009,4.249,5.019Zm10.121-20.412,2.4-3.348h-13.168l4.509-6.587,1.707,1.169-2.306,3.368h13.27l-4.731,6.605Zm-1.608-20.475h-8.513v-2.069h8.512l4.875-5.4,1.531,1.392-3.618,4.008h4.852v2.069h-4.852l3.618,4.008-1.528,1.38Zm-9.268-16.589,7.094-6.616-7.08-6.623h17.116l-7.088,6.622,7.087,6.617Zm5.107-2h6.94l-3.465-3.247Zm3.468-5.983,3.466-3.238h-6.934Zm-3-34.552,1.456-1.456,3.317,3.311,4.955-4.956,1.45,1.45-6.421,6.42Zm-4.964-.009,6.41-6.411,4.769,4.759-1.47,1.469-3.29-3.31-4.961,4.96Zm.547-13.091,5.009-5.687h-5.409V693.9h16.079l-5.093,8.924-3.485-6.085-5.542,6.291Zm10.586-3.006,1.53-2.681h-3.071Zm-11.737-24.113h17.052l-4.641,9.3-3.982-5.161-2.485,5.376Zm12.05,5.536,1.763-3.532h-4.489Zm-6.374-.216,1.533-3.316h-3.594Zm-5.351-16.185,4.894-4.487-4.894-4.5,1.4-1.515,5.036,4.608,5.044-4.624,5.474,6.1-5.483,5.947-5.022-4.621-5.042,4.622Zm7.969-4.487,3.377,3.1,2.809-3.047-2.816-3.139Zm-8.3-15.127,7.094-6.616-7.08-6.623h17.116l-7.088,6.622,7.087,6.617Zm5.107-2h6.94l-3.465-3.247Zm3.468-5.983,3.466-3.238h-6.934Zm2.539-30.458,2.064-3.453h-12.422v-2.069h16.079l-3.953,6.578Zm-5.542-19.458,1.456-1.456,3.317,3.311,4.955-4.956,1.45,1.45-6.421,6.42Zm-4.964-.009,6.41-6.411,4.769,4.759-1.47,1.469-3.29-3.31-4.961,4.96Zm-.6-24.855h17.052l-4.641,9.3-3.982-5.161-2.485,5.375Zm12.05,5.537,1.763-3.533h-4.489Zm-6.374-.217,1.533-3.316h-3.594Zm-5.351-31.549,4.894-4.487-4.894-4.5,1.4-1.515,5.036,4.608,5.044-4.625,5.474,6.1-5.483,5.947-5.022-4.62-5.042,4.622Zm7.969-4.487,3.377,3.1,2.809-3.047-2.816-3.14Zm-3.024-20.387h-4.518v-2.069h16.161v2.069h-3.683l-3.981,6.828Zm3.98,2.7,1.576-2.7h-3.161Zm-3.682-34.071,1.456-1.456,3.317,3.311,4.955-4.955,1.45,1.45-6.421,6.42Zm-4.964-.009,6.41-6.411,4.769,4.759-1.47,1.47-3.29-3.311-4.961,4.961Zm-.6-24.855h17.052l-4.641,9.3-3.982-5.161-2.485,5.376Zm12.05,5.537,1.763-3.533h-4.489Zm-6.374-.216,1.533-3.316h-3.594Zm7-18.887,1.227-3.041h-2.328l-1.243,3.005,1.549,3.758-1.854.76-1.863-4.519,1.243-3h-8.659v-2h16.115l-1.985,4.964,1.856,3.7-1.8.9Zm-4.87-36.7h-7.059v-2.069h16.079l-5.093,8.924Zm3.927,2.682,1.53-2.682h-3.071Zm.943-18.318,1.227-3.04h-2.328l-1.243,3.005,1.549,3.758-1.854.76-1.863-4.519,1.243-3h-8.659v-2h16.115l-1.985,4.964,1.856,3.7-1.8.9Zm-11.529-15.65,5.009-5.686h-5.409v-2.069h16.079l-5.093,8.923-3.485-6.086-5.542,6.292Zm10.586-3.005,1.53-2.681h-3.071Zm1.334-17.961,1.363-4.092h-11.2l1.362,4.092-2.512,3.767-1.729-1.152,1.948-2.923-1.948-5.854h16.96l-1.948,5.854,1.948,2.922-1.73,1.153Zm-12.625-22.055,1.153-1.729,6.715,4.487V323.9l9.082,5.688-1.1,1.754-5.918-3.705V336Z" transform="translate(-1852.738 -323.903)" fill="#fff"/>
</svg>
