<svg xmlns="http://www.w3.org/2000/svg" width="57.828" height="47.001" viewBox="0 0 57.828 47.001">
  <path id="SHAPE_CAT" data-name="SHAPE CAT" d="M642.213,1053a7.243,7.243,0,0,1-4.578.59,105.161,105.161,0,0,0-15.8-2.064,30.639,30.639,0,0,0-7.679.59c-2.544.487-4.515-2.757-4.873-3.538s-3.67-7.06-.3-10.467c2.341-2.021,3.537-.868,4.282-.295s2.237.636,1.625-1.032-2.872-3.669-6.793-2.359c-2.651.868-4.91,4.616-4.43,8.993s2.82,7.694,4.135,9.73.517,4.068.591,4.717a11.817,11.817,0,0,0-1.181,5.455c.192,1.535-2.164,3.607-3.4,4.423a34.912,34.912,0,0,0-2.215,5.16,30.052,30.052,0,0,1-.886,3.243c-.418.749.625,2.642,1.477,2.654.261.071,1.033.574,1.181-2.064.084-1.492,0-1.25.3-1.769s.6-3.078,2.068-3.686a49.3,49.3,0,0,1,6.5-1.917c.35.042-.025,2.878-.443,3.98-.241.867.743,2.2,1.477,3.538s1.186,1.109,1.329,1.622,1.777,1.787,2.067,2.211,2.9.342,3.544,0a.706.706,0,0,0,0-1.327c-.359-.43-.793-.808-1.329-.59s-.852-.307-1.329-.885a10.436,10.436,0,0,1-1.624-2.211c-.093-.46-.409-.661.3-1.474s1.481-1.958,2.363-2.8.861-2.754,2.068-3.1,3.49.135,6.645-.885c2.447.631,4.642.578,4.725,1.032a28.2,28.2,0,0,1-1.034,5.6c-.418,1.073-.822,1.934-.591,2.506.232.867-.291,3.025.148,3.243a6.2,6.2,0,0,0,3.249.147c.793-.342,1.039-1.162.3-1.474a7.363,7.363,0,0,0-1.181-.442c.054-.991-.084-1.25.148-1.769s1.865-3.727,2.068-4.275c.615-.519,1.393-2.282,2.51-2.506s2.515-.159,3.249-.59c1.443.867,2.6,1.492,2.806,2.359.232.572,4.051,3.438,5.611,4.57s2.958,3.231,3.692,3.1c.852.248.861.991,1.477,1.032s3.342.224,3.692-.295.418-.749,0-.885-1-.955-1.477-.737-.94-.159-1.477-.442c-.507-.548-1.329-1.327-1.329-1.327s-1.915-2.547-2.658-3.243-2.24-3.167-2.215-4.423a4.313,4.313,0,0,0,0-2.506,14.913,14.913,0,0,1,.148-5.455c.438-.873.684-2.105,1.772-2.654s2.043-.867,2.658-.59,1.777-.572,1.92-.885c.025-.371.655-.69.591-.885a.473.473,0,0,1,.148-.59c.232-.165.448-.366.148-.737a7.958,7.958,0,0,0-.738-.885,4,4,0,0,1-1.181-1.622c-.241-.784-.527-.985-1.477-1.622s-1.265-.631-1.329-.885.241-2.234,0-2.506-.738.59-.738.59l.148-1.032s-.143-.406-.886.885a15.87,15.87,0,0,0-1.477,1.622c-.359.583-1.531.832-2.51,1.327a4.5,4.5,0,0,0-2.068,1.622A3.1,3.1,0,0,1,642.213,1053Z" transform="translate(-600.622 -1033.999)" fill="#fff"/>
</svg>
